<?xml version="1.0" encoding="UTF-8"?><svg xmlns="http://www.w3.org/2000/svg" xmlns:xlink="http://www.w3.org/1999/xlink" height="253.0" preserveAspectRatio="xMidYMid meet" version="1.1" viewBox="86.1 86.1 253.0 253.0" width="253.0" zoomAndPan="magnify">
 <g id="surface1">
  <g id="change1_1"><path d="m210.1 313.4h5v-200.3h-5z" fill="#292626"/></g>
  <g id="change1_2"><path d="m112.45 215.75h200.3v-5h-200.3z" fill="#292626"/></g>
  <g id="change1_3"><path d="m143.55 285.83l141.63-141.63-3.53-3.54-141.63 141.64" fill="#292626"/></g>
  <g id="change1_4"><path d="m140.02 144.2l141.63 141.63 3.53-3.53-141.63-141.64" fill="#292626"/></g>
  <g id="change2_1"><path d="m212.6 289.23c-40.74 0-73.89-33.15-73.89-73.89s33.15-73.88 73.89-73.88 73.88 33.14 73.88 73.88-33.14 73.89-73.88 73.89" fill="#fff"/></g>
  <g id="change1_5"><path d="m212.6 138.96c-42.12 0-76.39 34.26-76.39 76.38s34.27 76.39 76.39 76.39 76.38-34.27 76.38-76.39-34.26-76.38-76.38-76.38zm0 5c39.42 0 71.38 31.96 71.38 71.38 0 39.43-31.96 71.39-71.38 71.39s-71.39-31.96-71.39-71.39c0-39.42 31.97-71.38 71.39-71.38" fill="#292626"/></g>
  <g id="change2_2"><path d="m200.35 100.85c0-6.764 5.49-12.248 12.25-12.248 6.77 0 12.25 5.484 12.25 12.248 0 6.77-5.48 12.25-12.25 12.25-6.76 0-12.25-5.48-12.25-12.25" fill="#fff"/></g>
  <g id="change1_6"><path d="m200.35 100.85h2.5c0-2.702 1.09-5.123 2.86-6.893 1.77-1.769 4.19-2.855 6.89-2.855s5.12 1.086 6.89 2.855c1.77 1.77 2.86 4.191 2.86 6.893 0 2.7-1.09 5.12-2.86 6.89s-4.19 2.86-6.89 2.86-5.12-1.09-6.89-2.86-2.86-4.19-2.86-6.89h-5c0 8.15 6.6 14.75 14.75 14.75s14.75-6.6 14.75-14.75c0-8.147-6.6-14.748-14.75-14.748s-14.75 6.601-14.75 14.748h2.5" fill="#292626"/></g>
  <g id="change2_3"><path d="m200.35 324.35c0-6.76 5.49-12.25 12.25-12.25 6.77 0 12.25 5.49 12.25 12.25 0 6.77-5.48 12.25-12.25 12.25-6.76 0-12.25-5.48-12.25-12.25" fill="#fff"/></g>
  <g id="change1_7"><path d="m200.35 324.35h2.5c0-2.7 1.09-5.12 2.86-6.89s4.19-2.86 6.89-2.86 5.12 1.09 6.89 2.86 2.86 4.19 2.86 6.89-1.09 5.12-2.86 6.89-4.19 2.86-6.89 2.86-5.12-1.09-6.89-2.86-2.86-4.19-2.86-6.89h-5c0 8.15 6.6 14.75 14.75 14.75s14.75-6.6 14.75-14.75-6.6-14.75-14.75-14.75-14.75 6.6-14.75 14.75h2.5" fill="#292626"/></g>
  <g id="change2_4"><path d="m324.35 200.35c6.77 0 12.25 5.49 12.25 12.25 0 6.77-5.48 12.25-12.25 12.25-6.76 0-12.25-5.48-12.25-12.25 0-6.76 5.49-12.25 12.25-12.25" fill="#fff"/></g>
  <g id="change1_8"><path d="m324.35 200.35v2.5c2.7 0 5.12 1.09 6.89 2.86s2.86 4.19 2.86 6.89-1.09 5.12-2.86 6.89-4.19 2.86-6.89 2.86-5.12-1.09-6.89-2.86-2.86-4.19-2.86-6.89 1.09-5.12 2.86-6.89 4.19-2.86 6.89-2.86v-5c-8.15 0-14.75 6.6-14.75 14.75s6.6 14.75 14.75 14.75 14.75-6.6 14.75-14.75-6.6-14.75-14.75-14.75v2.5" fill="#292626"/></g>
  <g id="change2_5"><path d="m100.85 200.35c6.77 0 12.25 5.49 12.25 12.25 0 6.77-5.48 12.25-12.25 12.25-6.764 0-12.248-5.48-12.248-12.25 0-6.76 5.484-12.25 12.248-12.25" fill="#fff"/></g>
  <g id="change1_9"><path d="m100.85 200.35v2.5c2.7 0 5.12 1.09 6.89 2.86s2.86 4.19 2.86 6.89-1.09 5.12-2.86 6.89-4.19 2.86-6.89 2.86c-2.702 0-5.123-1.09-6.893-2.86-1.769-1.77-2.855-4.19-2.855-6.89s1.086-5.12 2.855-6.89c1.77-1.77 4.191-2.86 6.893-2.86v-5c-8.147 0-14.748 6.6-14.748 14.75s6.601 14.75 14.748 14.75c8.15 0 14.75-6.6 14.75-14.75s-6.6-14.75-14.75-14.75v2.5" fill="#292626"/></g>
  <g id="change2_6"><path d="m282.96 124.92c4.78-4.78 12.54-4.79 17.32 0 4.79 4.78 4.79 12.54 0 17.32-4.78 4.79-12.54 4.79-17.32 0-4.79-4.78-4.79-12.54 0-17.32" fill="#fff"/></g>
  <g id="change1_10"><path d="m282.96 124.92l1.77 1.77c1.91-1.91 4.38-2.86 6.88-2.86 2.51 0 4.99 0.95 6.9 2.86s2.86 4.39 2.86 6.89c0 2.51-0.95 4.98-2.86 6.9-1.91 1.9-4.39 2.85-6.89 2.85s-4.98-0.95-6.89-2.85c-1.91-1.92-2.86-4.39-2.86-6.9 0-2.5 0.95-4.98 2.86-6.89l-1.77-1.77-1.77-1.77c-2.88 2.87-4.32 6.66-4.32 10.43s1.44 7.56 4.32 10.43c2.87 2.88 6.66 4.33 10.43 4.32 3.77 0.01 7.56-1.44 10.43-4.32 2.88-2.87 4.32-6.66 4.32-10.43s-1.44-7.56-4.32-10.43c-2.88-2.88-6.67-4.32-10.44-4.32-3.76 0-7.55 1.45-10.42 4.32l1.77 1.77" fill="#292626"/></g>
  <g id="change2_7"><path d="m124.92 282.96c4.78-4.78 12.54-4.78 17.32 0 4.79 4.78 4.79 12.54 0 17.32-4.78 4.79-12.54 4.79-17.32 0-4.78-4.78-4.78-12.54 0-17.32" fill="#fff"/></g>
  <g id="change1_11"><path d="m124.92 282.96l1.77 1.77c1.9-1.91 4.38-2.86 6.88-2.86 2.51 0 4.99 0.95 6.91 2.86 1.9 1.91 2.85 4.39 2.85 6.89s-0.95 4.98-2.85 6.89c-1.92 1.91-4.4 2.86-6.91 2.86-2.5 0-4.98-0.95-6.88-2.86-1.91-1.91-2.85-4.39-2.86-6.89 0.01-2.5 0.95-4.98 2.86-6.89l-1.77-1.77-1.77-1.77c-2.87 2.87-4.32 6.66-4.32 10.43s1.45 7.56 4.32 10.43 6.65 4.32 10.42 4.32 7.56-1.44 10.44-4.32c2.88-2.87 4.33-6.66 4.32-10.43 0.01-3.77-1.44-7.56-4.32-10.43-2.88-2.88-6.67-4.32-10.44-4.32s-7.55 1.45-10.42 4.32l1.77 1.77" fill="#292626"/></g>
  <g id="change2_8"><path d="m124.92 142.24c-4.78-4.78-4.78-12.54 0-17.32s12.54-4.78 17.32 0c4.79 4.78 4.79 12.54 0 17.32-4.78 4.79-12.54 4.79-17.32 0" fill="#fff"/></g>
  <g id="change1_12"><path d="m124.92 142.24l1.77-1.76c-1.91-1.91-2.85-4.39-2.86-6.9 0.01-2.5 0.95-4.98 2.86-6.89 1.9-1.91 4.38-2.86 6.88-2.86 2.51 0.01 4.99 0.95 6.91 2.86 1.9 1.91 2.85 4.39 2.85 6.9 0 2.5-0.95 4.98-2.85 6.89-1.91 1.9-4.39 2.85-6.9 2.85-2.5 0-4.98-0.95-6.89-2.85l-1.77 1.76-1.77 1.77c2.87 2.88 6.66 4.33 10.43 4.32 3.77 0.01 7.56-1.44 10.43-4.32 2.87-2.87 4.33-6.66 4.32-10.42 0.01-3.77-1.44-7.56-4.32-10.44s-6.67-4.32-10.44-4.32-7.55 1.45-10.42 4.32-4.32 6.66-4.32 10.43 1.45 7.56 4.32 10.43l1.77-1.77" fill="#292626"/></g>
  <g id="change2_9"><path d="m282.96 300.28c-4.79-4.78-4.79-12.54 0-17.32 4.78-4.78 12.54-4.78 17.32 0 4.79 4.78 4.79 12.54 0 17.32-4.78 4.79-12.54 4.79-17.32 0" fill="#fff"/></g>
  <g id="change1_13"><path d="m282.96 300.28l1.77-1.77c-1.91-1.91-2.86-4.39-2.86-6.89s0.95-4.98 2.86-6.89 4.39-2.86 6.9-2.86c2.5 0 4.98 0.95 6.89 2.86 1.9 1.91 2.85 4.39 2.85 6.89s-0.95 4.98-2.85 6.89c-1.92 1.91-4.4 2.86-6.9 2.86s-4.98-0.95-6.89-2.85l-1.77 1.76-1.77 1.77c2.87 2.88 6.66 4.32 10.43 4.32s7.56-1.44 10.43-4.32c2.88-2.87 4.32-6.66 4.32-10.43s-1.44-7.56-4.32-10.43c-2.87-2.87-6.66-4.32-10.42-4.32-3.77 0-7.56 1.44-10.44 4.32-2.88 2.87-4.32 6.66-4.32 10.43s1.44 7.56 4.32 10.43l1.77-1.77" fill="#292626"/></g>
  <g id="change2_10"><path d="m156.43 207.95c-1.35 0-2.67-0.46-3.72-1.29-1.26-1-2.07-2.42-2.25-4.02-0.19-1.59 0.25-3.16 1.25-4.42 15-19.04 37.5-29.97 61.72-29.97 23.12 0 44.96 10.12 59.93 27.76 2.14 2.53 1.83 6.33-0.7 8.47-1.08 0.92-2.46 1.43-3.88 1.43-1.77 0-3.44-0.78-4.59-2.12-12.68-14.95-31.18-23.52-50.76-23.52-20.51 0-39.57 9.26-52.29 25.39-1.14 1.45-2.86 2.29-4.71 2.29" fill="#fff"/></g>
  <g id="change1_14"><path d="m213.43 165.75c-24.99 0-48.2 11.27-63.69 30.92-1.4 1.78-2.03 4.01-1.76 6.27 0.26 2.26 1.39 4.27 3.18 5.68 1.5 1.18 3.36 1.83 5.27 1.83 2.62 0 5.05-1.18 6.68-3.24 12.24-15.53 30.58-24.44 50.32-24.44 18.84 0 36.65 8.25 48.86 22.63 1.62 1.91 3.98 3.01 6.49 3.01 2.01 0 3.96-0.72 5.5-2.02 3.58-3.04 4.02-8.42 0.99-12-15.45-18.2-37.99-28.64-61.84-28.64zm0 5c22.38 0 43.53 9.8 58.02 26.87 1.25 1.48 1.07 3.7-0.4 4.95-0.66 0.56-1.47 0.84-2.27 0.84-1 0-1.99-0.43-2.68-1.24-13.16-15.51-32.35-24.4-52.67-24.4-21.28 0-41.05 9.61-54.25 26.34-0.69 0.88-1.72 1.34-2.75 1.34-0.77 0-1.53-0.25-2.18-0.75-1.52-1.2-1.78-3.41-0.58-4.93 14.53-18.44 36.31-29.02 59.76-29.02" fill="#292626"/></g>
  <g id="change2_11"><path d="m172.17 220.34c-1.35 0-2.66-0.46-3.72-1.29-2.6-2.05-3.05-5.84-1-8.44 11.18-14.18 27.94-22.32 45.98-22.32 17.48 0 33.91 7.72 45.08 21.19 1.02 1.23 1.51 2.8 1.36 4.4s-0.92 3.04-2.15 4.07c-1.08 0.89-2.44 1.38-3.84 1.38-1.79 0-3.48-0.79-4.63-2.18-8.87-10.7-21.93-16.84-35.82-16.84-14.33 0-27.65 6.46-36.54 17.74-1.14 1.46-2.87 2.29-4.72 2.29" fill="#fff"/></g>
  <g id="change1_15"><path d="m213.43 185.79c-18.81 0-36.29 8.48-47.95 23.27-2.9 3.69-2.26 9.05 1.42 11.96 1.5 1.17 3.37 1.82 5.27 1.82 2.63 0 5.06-1.18 6.69-3.24 8.41-10.67 21.01-16.79 34.57-16.79 13.15 0 25.5 5.81 33.9 15.94 1.62 1.96 4.01 3.08 6.55 3.08 1.98 0 3.91-0.7 5.43-1.96 1.75-1.45 2.83-3.5 3.05-5.76 0.21-2.27-0.48-4.48-1.93-6.23-11.64-14.04-28.77-22.09-47-22.09zm0 5c16.74 0 32.46 7.39 43.16 20.29 1.23 1.49 1.02 3.7-0.47 4.94-0.65 0.54-1.45 0.81-2.24 0.81-1 0-2-0.44-2.7-1.27-9.35-11.28-23.11-17.75-37.75-17.75-15.11 0-29.14 6.81-38.5 18.69-0.7 0.88-1.72 1.34-2.76 1.34-0.76 0-1.53-0.25-2.17-0.75-1.52-1.2-1.79-3.41-0.59-4.93 10.71-13.58 26.75-21.37 44.02-21.37" fill="#292626"/></g>
  <g id="change2_12"><path d="m239.85 230.5c-1.77 0-3.44-0.78-4.59-2.13-5.44-6.44-13.4-10.13-21.82-10.13s-16.36 3.68-21.81 10.1c-1.14 1.36-2.81 2.13-4.59 2.13-1.42 0-2.79-0.51-3.88-1.43-1.23-1.03-1.97-2.49-2.11-4.09-0.12-1.6 0.38-3.15 1.41-4.38 7.74-9.12 19.02-14.35 30.98-14.35s23.26 5.24 31 14.39c2.14 2.52 1.82 6.32-0.71 8.46-1.08 0.92-2.46 1.43-3.88 1.43" fill="#fff"/></g>
  <g id="change1_16"><path d="m213.44 203.72c-12.69 0-24.68 5.55-32.89 15.24-1.46 1.73-2.17 3.93-1.99 6.2 0.19 2.26 1.25 4.32 2.98 5.79 1.54 1.3 3.49 2.02 5.5 2.02 2.51 0 4.88-1.1 6.5-3.01 4.97-5.86 12.22-9.22 19.9-9.22s14.94 3.37 19.91 9.24c1.62 1.92 3.99 3.02 6.5 3.02 2.01 0 3.96-0.72 5.5-2.02 3.58-3.03 4.03-8.41 1-11.99-8.21-9.71-20.21-15.27-32.91-15.27zm0 5c11.22 0 21.83 4.92 29.09 13.5 1.25 1.48 1.07 3.69-0.41 4.95-0.66 0.56-1.47 0.83-2.27 0.83-0.99 0-1.99-0.43-2.68-1.25-5.92-7-14.57-11.01-23.73-11.01-9.15 0-17.8 4-23.72 10.99-0.69 0.82-1.68 1.24-2.68 1.24-0.8 0-1.6-0.27-2.26-0.83-1.48-1.26-1.67-3.47-0.41-4.95 7.25-8.56 17.85-13.47 29.07-13.47" fill="#292626"/></g>
  <g id="change2_13"><path d="m228.71 244.66c0 8.43-6.84 15.27-15.27 15.27-8.44 0-15.27-6.84-15.27-15.27s6.83-15.27 15.27-15.27c8.43 0 15.27 6.84 15.27 15.27" fill="#fff"/></g>
  <g id="change1_17"><path d="m228.71 244.66h-2.5c0 3.53-1.43 6.71-3.75 9.03-2.31 2.31-5.49 3.74-9.02 3.74-3.54 0-6.71-1.43-9.03-3.74-2.32-2.32-3.74-5.5-3.74-9.03 0-3.54 1.42-6.71 3.74-9.03s5.49-3.74 9.03-3.74c3.53 0 6.71 1.42 9.02 3.74 2.32 2.32 3.75 5.49 3.75 9.03h5c-0.01-9.82-7.96-17.77-17.77-17.77-9.82 0-17.77 7.95-17.78 17.77 0.01 9.81 7.96 17.77 17.78 17.77 9.81 0 17.76-7.96 17.77-17.77h-2.5" fill="#292626"/></g>
 </g>
</svg>